<?xml version="1.0" encoding="UTF-8" standalone="no"?>
<!-- Created with Inkscape (http://www.inkscape.org/) -->

<svg
   xmlns:dc="http://purl.org/dc/elements/1.1/"
   xmlns:cc="http://creativecommons.org/ns#"
   xmlns:rdf="http://www.w3.org/1999/02/22-rdf-syntax-ns#"
   xmlns:svg="http://www.w3.org/2000/svg"
   xmlns="http://www.w3.org/2000/svg"
   xmlns:sodipodi="http://sodipodi.sourceforge.net/DTD/sodipodi-0.dtd"
   xmlns:inkscape="http://www.inkscape.org/namespaces/inkscape"
   width="17.054588mm"
   height="17.054596mm"
   viewBox="0 0 17.054588 17.054596"
   version="1.1"
   id="svg8"
   inkscape:version="0.92.2 (5c3e80d, 2017-08-06)"
   sodipodi:docname="expand.svg">
  <defs
     id="defs2">
    <pattern
       y="0"
       x="0"
       height="6"
       width="6"
       patternUnits="userSpaceOnUse"
       id="EMFhbasepattern" />
  </defs>
  <sodipodi:namedview
     id="base"
     pagecolor="#ffffff"
     bordercolor="#666666"
     borderopacity="1.0"
     inkscape:pageopacity="0.0"
     inkscape:pageshadow="2"
     inkscape:zoom="1.979899"
     inkscape:cx="-24.258918"
     inkscape:cy="-18.289229"
     inkscape:document-units="mm"
     inkscape:current-layer="layer1"
     showgrid="false"
     inkscape:pagecheckerboard="true"
     fit-margin-top="0"
     fit-margin-left="0"
     fit-margin-right="0"
     fit-margin-bottom="0"
     inkscape:window-width="1920"
     inkscape:window-height="1017"
     inkscape:window-x="-8"
     inkscape:window-y="-8"
     inkscape:window-maximized="1" />
  <metadata
     id="metadata5">
    <rdf:RDF>
      <cc:Work
         rdf:about="">
        <dc:format>image/svg+xml</dc:format>
        <dc:type
           rdf:resource="http://purl.org/dc/dcmitype/StillImage" />
        <dc:title></dc:title>
      </cc:Work>
    </rdf:RDF>
  </metadata>
  <g
     inkscape:label="Calque 1"
     inkscape:groupmode="layer"
     id="layer1"
     transform="translate(-92.014372,-17.105718)">
    <path
       id="path818"
       d="m 94.888489,17.160723 c -1.414539,0 -2.819117,1.404578 -2.819117,2.819118 v 11.296393 c 0,1.414539 1.404578,2.829079 2.819117,2.829079 h 11.296391 c 1.41454,0 2.82908,-1.41454 2.82908,-2.829079 V 19.979841 c 0,-1.41454 -1.41454,-2.819118 -2.82908,-2.819118 z m -2.819117,0 z m 16.944588,16.94459 z"
       style="fill:#ffffff;fill-opacity:1;fill-rule:evenodd;stroke:none;stroke-width:0.26458332"
       inkscape:connector-curvature="0" />
    <path
       id="path820"
       d="m 94.888489,17.160723 c -1.414539,0 -2.819117,1.404578 -2.819117,2.819118 v 11.296393 c 0,1.414539 1.404578,2.829079 2.819117,2.829079 h 11.296391 c 1.41454,0 2.82908,-1.41454 2.82908,-2.829079 V 19.979841 c 0,-1.41454 -1.41454,-2.819118 -2.82908,-2.819118 H 94.888489"
       style="fill:none;stroke:#000000;stroke-width:0.11;stroke-linecap:round;stroke-linejoin:round;stroke-miterlimit:4;stroke-dasharray:none;stroke-opacity:1"
       inkscape:connector-curvature="0" />
    <path
       id="path822"
       d="m 92.069372,17.160723 v 0"
       style="fill:none;stroke:#000000;stroke-width:0.00996155px;stroke-linecap:round;stroke-linejoin:round;stroke-miterlimit:4;stroke-dasharray:none;stroke-opacity:1"
       inkscape:connector-curvature="0" />
    <path
       id="path824"
       d="m 109.01396,34.105313 v 0"
       style="fill:none;stroke:#000000;stroke-width:0.00996155px;stroke-linecap:round;stroke-linejoin:round;stroke-miterlimit:4;stroke-dasharray:none;stroke-opacity:1"
       inkscape:connector-curvature="0" />
    <path
       id="path826"
       d="m 102.86769,26.365191 2.94861,2.95858 1.32489,-1.324886 -0.24904,3.984618 -3.98462,0.249039 1.32489,-1.324885 -2.95858,-2.948618 z m 1.31492,-1.314924 z m 0.58773,9.055046 z"
       style="fill:#000000;fill-opacity:1;fill-rule:evenodd;stroke:none;stroke-width:0.26458332"
       inkscape:connector-curvature="0" />
    <path
       id="path828"
       d="m 102.86769,26.365191 2.94861,2.95858 1.32489,-1.324886 -0.24904,3.984618 -3.98462,0.249039 1.32489,-1.324885 -2.95858,-2.948618 1.59385,-1.593848"
       style="fill:none;stroke:#000000;stroke-width:0.00996155px;stroke-linecap:round;stroke-linejoin:round;stroke-miterlimit:4;stroke-dasharray:none;stroke-opacity:1"
       inkscape:connector-curvature="0" />
    <path
       id="path830"
       d="m 104.18261,25.050267 v 0"
       style="fill:none;stroke:#000000;stroke-width:0.00996155px;stroke-linecap:round;stroke-linejoin:round;stroke-miterlimit:4;stroke-dasharray:none;stroke-opacity:1"
       inkscape:connector-curvature="0" />
    <path
       id="path832"
       d="m 104.77034,34.105313 v 0"
       style="fill:none;stroke:#000000;stroke-width:0.00996155px;stroke-linecap:round;stroke-linejoin:round;stroke-miterlimit:4;stroke-dasharray:none;stroke-opacity:1"
       inkscape:connector-curvature="0" />
    <path
       id="path834"
       d="m 98.125992,26.365191 -2.948618,2.95858 -1.324885,-1.324886 0.249038,3.984618 3.984618,0.249039 -1.324885,-1.324885 2.958579,-2.948618 z m -1.314924,-1.314924 z m -0.587732,9.055046 z"
       style="fill:#000000;fill-opacity:1;fill-rule:evenodd;stroke:none;stroke-width:0.26458332"
       inkscape:connector-curvature="0" />
    <path
       id="path836"
       d="m 98.125992,26.365191 -2.948618,2.95858 -1.324885,-1.324886 0.249038,3.984618 3.984618,0.249039 -1.324885,-1.324885 2.958579,-2.948618 -1.593847,-1.593848"
       style="fill:none;stroke:#000000;stroke-width:0.00996155px;stroke-linecap:round;stroke-linejoin:round;stroke-miterlimit:4;stroke-dasharray:none;stroke-opacity:1"
       inkscape:connector-curvature="0" />
    <path
       id="path838"
       d="m 96.811068,25.050267 v 0"
       style="fill:none;stroke:#000000;stroke-width:0.00996155px;stroke-linecap:round;stroke-linejoin:round;stroke-miterlimit:4;stroke-dasharray:none;stroke-opacity:1"
       inkscape:connector-curvature="0" />
    <path
       id="path840"
       d="m 96.223336,34.105313 v 0"
       style="fill:none;stroke:#000000;stroke-width:0.00996155px;stroke-linecap:round;stroke-linejoin:round;stroke-miterlimit:4;stroke-dasharray:none;stroke-opacity:1"
       inkscape:connector-curvature="0" />
    <path
       id="path842"
       d="m 98.125992,24.880921 -2.948618,-2.958579 -1.324885,1.324886 0.249038,-3.984619 3.984618,-0.249038 -1.324885,1.324885 2.958579,2.948618 z m -1.314924,1.314924 z M 96.223336,17.1408 Z"
       style="fill:#000000;fill-opacity:1;fill-rule:evenodd;stroke:none;stroke-width:0.26458332"
       inkscape:connector-curvature="0" />
    <path
       id="path844"
       d="m 98.125992,24.880921 -2.948618,-2.958579 -1.324885,1.324886 0.249038,-3.984619 3.984618,-0.249038 -1.324885,1.324885 2.958579,2.948618 -1.593847,1.593847"
       style="fill:none;stroke:#000000;stroke-width:0.00996155px;stroke-linecap:round;stroke-linejoin:round;stroke-miterlimit:4;stroke-dasharray:none;stroke-opacity:1"
       inkscape:connector-curvature="0" />
    <path
       id="path846"
       d="m 96.811068,26.195845 v 0"
       style="fill:none;stroke:#000000;stroke-width:0.00996155px;stroke-linecap:round;stroke-linejoin:round;stroke-miterlimit:4;stroke-dasharray:none;stroke-opacity:1"
       inkscape:connector-curvature="0" />
    <path
       id="path848"
       d="m 96.223336,17.1408 v 0"
       style="fill:none;stroke:#000000;stroke-width:0.00996155px;stroke-linecap:round;stroke-linejoin:round;stroke-miterlimit:4;stroke-dasharray:none;stroke-opacity:1"
       inkscape:connector-curvature="0" />
    <path
       id="path850"
       d="m 102.94738,24.81119 2.91873,-2.918733 1.31493,1.314925 -0.259,-3.964696 -3.97466,-0.268961 1.32489,1.324885 -2.91874,2.918733 z m 1.31492,1.314924 z m 0.53793,-9.005237 z"
       style="fill:#000000;fill-opacity:1;fill-rule:evenodd;stroke:none;stroke-width:0.26458332"
       inkscape:connector-curvature="0" />
    <path
       id="path852"
       d="m 102.94738,24.81119 2.91873,-2.918733 1.31493,1.314925 -0.259,-3.964696 -3.97466,-0.268961 1.32489,1.324885 -2.91874,2.918733 1.59385,1.593847"
       style="fill:none;stroke:#000000;stroke-width:0.00996155px;stroke-linecap:round;stroke-linejoin:round;stroke-miterlimit:4;stroke-dasharray:none;stroke-opacity:1"
       inkscape:connector-curvature="0" />
    <path
       id="path854"
       d="m 104.2623,26.126114 v 0"
       style="fill:none;stroke:#000000;stroke-width:0.00996155px;stroke-linecap:round;stroke-linejoin:round;stroke-miterlimit:4;stroke-dasharray:none;stroke-opacity:1"
       inkscape:connector-curvature="0" />
    <path
       id="path856"
       d="m 104.80023,17.120877 v 0"
       style="fill:none;stroke:#000000;stroke-width:0.00996155px;stroke-linecap:round;stroke-linejoin:round;stroke-miterlimit:4;stroke-dasharray:none;stroke-opacity:1"
       inkscape:connector-curvature="0" />
  </g>
</svg>
